<?xml version="1.0" encoding="UTF-8"?>
<svg width="28px" height="28px" viewBox="0 0 28 28" version="1.1" xmlns="http://www.w3.org/2000/svg" xmlns:xlink="http://www.w3.org/1999/xlink">
    <title>FEE6ADA6-9EEC-43C1-9B2B-8E598FC8A34A</title>
    <g id="05---Our-Music" stroke="none" stroke-width="1" fill="none" fill-rule="evenodd">
        <g id="Desktop/Our-Music" transform="translate(-1115.000000, -1174.000000)" fill="#173D32" fill-rule="nonzero">
            <g id="Block-" transform="translate(1084.000000, 779.000000)">
                <g id="icon/general/email" transform="translate(31.000000, 395.000000)">
                    <path d="M22.974359,8.14153846 C23.335185,8.14153846 23.6276923,8.43404576 23.6276923,8.79487179 L23.6276923,20.6410256 C23.6276923,21.0018517 23.335185,21.294359 22.974359,21.294359 L5.02564103,21.294359 C4.66481499,21.294359 4.37230769,21.0018517 4.37230769,20.6410256 L4.37230769,8.79487179 C4.37230769,8.43404576 4.66481499,8.14153846 5.02564103,8.14153846 L22.974359,8.14153846 Z M22.3203077,10.0915026 L14.3946899,16.1007239 C14.1613047,16.2776504 13.8386953,16.2776504 13.6053101,16.1007239 L5.67830769,10.0915026 L5.67897436,19.9876923 L22.3210256,19.9876923 L22.3203077,10.0915026 Z M21.0063077,9.44750257 L6.99230769,9.44750257 L14,14.7602373 L21.0063077,9.44750257 Z" id="email"></path>
                </g>
            </g>
        </g>
    </g>
</svg>