<?xml version="1.0" encoding="UTF-8"?>
<svg width="27px" height="26px" viewBox="0 0 27 26" version="1.1" xmlns="http://www.w3.org/2000/svg" xmlns:xlink="http://www.w3.org/1999/xlink">
    <title>9DBF0F18-2494-4C80-A1C8-E946E69907F7</title>
    <g id="05---Our-Music" stroke="none" stroke-width="1" fill="none" fill-rule="evenodd">
        <g id="Desktop/Our-Music" transform="translate(-1426.000000, -1177.000000)" fill="#173D32" fill-rule="nonzero">
            <g id="Block-" transform="translate(1368.000000, 779.000000)">
                <g id="icon/social/monotone/facebook" transform="translate(58.000000, 398.000000)">
                    <path d="M11.7701194,3.49348235 C12.472397,2.84954249 13.4712608,2.63204757 14.413605,2.60493963 C15.4101958,2.59631055 16.4063931,2.60153009 17.4029839,2.60190893 C17.406918,3.61428948 17.407224,4.62704887 17.4025905,5.63938732 C16.7585373,5.6382929 16.1140033,5.64090267 15.4699938,5.6382929 C15.0615485,5.61379473 14.6422189,5.91189789 14.5679522,6.30176395 C14.5582044,6.97916781 14.5644552,7.65695051 14.5648486,8.33439646 C15.5094221,8.33814274 16.454083,8.33325994 17.3986564,8.33666948 C17.329504,9.31663837 17.2032199,10.2921454 17.0551672,11.263864 C16.2207918,11.2713987 15.3859356,11.2631063 14.5515602,11.2680312 C14.5441291,14.1583522 14.5554942,17.0486732 14.5457465,19.9389942 C13.3064227,19.943877 12.0663559,19.9367212 10.8270758,19.9423617 C10.8036025,17.0516618 10.8289992,14.1594888 10.8141808,11.2684101 C10.2095558,11.2623487 9.60458122,11.2725773 9,11.2635273 C9.00231674,10.2918086 9.00078682,9.32013209 9.00113651,8.3487502 C9.60532432,8.34163647 10.2099493,8.35026555 10.8141808,8.34462507 C10.8325398,7.39997228 10.795778,6.45422507 10.8333267,5.51037205 C10.8939115,4.76288322 11.1897546,4.00979601 11.7701194,3.49348235" id="facebook"></path>
                </g>
            </g>
        </g>
    </g>
</svg>