<?xml version="1.0" encoding="UTF-8"?>
<svg width="27px" height="26px" viewBox="0 0 27 26" version="1.1" xmlns="http://www.w3.org/2000/svg" xmlns:xlink="http://www.w3.org/1999/xlink">
    <title>45573CD9-754D-4B78-BBFB-21AD1C6C064A</title>
    <g id="05---Our-Music" stroke="none" stroke-width="1" fill="none" fill-rule="evenodd">
        <g id="Desktop/Our-Music" transform="translate(-1168.000000, -1175.000000)" fill="#173D32" fill-rule="nonzero">
            <g id="Block-" transform="translate(1084.000000, 779.000000)">
                <g id="icon/social/monotone/instagram" transform="translate(84.000000, 396.000000)">
                    <path d="M14.4975284,4.36851617 C16.0325932,4.37167225 16.3771328,4.38437434 17.1815168,4.41986614 C18.137299,4.4617064 18.790004,4.60785558 19.3611921,4.8214503 C19.960396,5.03861465 20.5032119,5.37903446 20.9517149,5.81899221 C21.4084871,6.25088396 21.7619287,6.77352686 21.9874099,7.35050376 C22.209398,7.90050244 22.3611683,8.52903314 22.404796,9.44941597 C22.4432512,10.2608933 22.4558705,10.5864073 22.4583454,12.2531503 L22.4583454,13.7757516 C22.4558705,15.4424709 22.4432512,15.7678931 22.404796,16.5794912 C22.3611683,17.4998397 22.209398,18.1283704 21.9874099,18.6783691 C21.5209069,19.8398397 20.5674059,20.7580259 19.3613347,21.207251 C18.7901465,21.4210173 18.1374416,21.5671665 17.1816594,21.6091783 C16.9901394,21.6175945 16.8246863,21.6247255 16.663025,21.6307488 L16.469426,21.6374565 C15.9828509,21.6529533 15.4502131,21.6591194 14.2700891,21.6607444 L12.6889262,21.6607444 C10.9581024,21.6583611 10.620164,21.6462092 9.7773505,21.6091783 C8.82160396,21.5671665 8.16889901,21.4210173 7.59771089,21.207251 C6.99857822,20.9901209 6.45579802,20.6497698 6.00729505,20.209915 C5.55052277,19.7780232 5.19708119,19.255346 4.9716,18.6783691 C4.74961188,18.1284048 4.59784158,17.4998741 4.55421386,16.5794912 C4.51735699,15.8048992 4.50416636,15.4731204 4.5008889,13.9949098 L4.5008889,12.0339974 C4.50416636,10.5557868 4.51735699,10.224008 4.55421386,9.44941597 C4.59766337,8.52903314 4.74943366,7.90050244 4.97124356,7.35046944 C5.19679604,6.77349254 5.55034455,6.25081531 6.00722376,5.81895789 C6.45572673,5.3791031 6.99850693,5.03875195 7.5976396,4.82162191 C8.16879208,4.60785558 8.82149703,4.4617064 9.77727921,4.41969452 C9.93049521,4.41296164 10.0670275,4.4070512 10.1982813,4.40187238 L10.3926288,4.39464152 C10.8757287,4.37787941 11.3647927,4.37076717 12.4612676,4.36851547 Z M13.4794337,5.92563512 C13.3835268,5.92563512 13.2910019,5.92564923 13.2016812,5.92567899 L12.4795106,5.92641071 C10.973921,5.92929701 10.6462907,5.94111224 9.85091881,5.97605624 C8.97544158,6.01449848 8.49999208,6.15536185 8.18358416,6.27377769 C7.79357228,6.41237571 7.44077228,6.63341861 7.15113267,6.92060277 C6.85286733,7.19951498 6.62332277,7.53924832 6.47935842,7.91484964 C6.35638812,8.21957307 6.21014257,8.67737901 6.17018614,9.52043116 C6.15981814,9.73928011 6.15141082,9.92135235 6.14462025,10.1036128 L6.13835586,10.2873051 C6.12589548,10.6913736 6.12048665,11.1541688 6.11863117,12.0516721 L6.11801436,12.4981403 C6.11788437,12.6581647 6.11782574,12.8298471 6.11782574,13.0145566 L6.1178713,13.2820183 C6.11790221,13.3680298 6.11794936,13.4509559 6.11801436,13.5309677 L6.11863117,13.977436 C6.12162848,15.4272574 6.13389814,15.7427971 6.17018614,16.508682 C6.21010693,17.3517341 6.35638812,17.8095744 6.47935842,18.1142635 C6.62328713,18.4898305 6.85283168,18.8295638 7.15106139,19.108476 C7.44070099,19.3956602 7.79350099,19.6166688 8.18351287,19.7552668 C8.49995644,19.8736826 8.9753703,20.014546 9.85084752,20.0530226 C10.6461595,20.0879666 10.9737048,20.0997818 12.4793743,20.1026681 L14.4793573,20.1026681 C15.9850487,20.0997818 16.312655,20.0879666 17.1078772,20.0530226 C17.9833545,20.0145803 18.458804,19.873717 18.7752119,19.7552668 C19.5583366,19.46441 20.1772871,18.8683836 20.4793663,18.1142635 C20.602301,17.8095401 20.7485822,17.3517341 20.7885743,16.508682 C20.7954806,16.3627827 20.8015164,16.2332286 20.8067834,16.1090671 L20.8141201,15.9255003 C20.8310842,15.4698492 20.8379533,15.0130217 20.8400937,13.977441 L20.8400937,12.0516677 C20.8382387,11.1541557 20.8328319,10.6913421 20.8203801,10.2872746 L20.8141201,10.1035843 C20.8073345,9.92132731 20.7989337,9.73926363 20.7885743,9.52043116 C20.7486178,8.67737901 20.6023366,8.21953875 20.4793663,7.91484964 C20.3354376,7.53928264 20.1058931,7.19954931 19.8076634,6.9206371 C19.5180238,6.63345294 19.1652594,6.41241003 18.7752119,6.27381201 C18.4587683,6.15539617 17.9833545,6.01456713 17.1078772,5.97609056 C16.3124455,5.94114656 15.9848055,5.92930712 14.4792567,5.92641306 L13.7571067,5.92567915 L13.7571067,5.92567915 Z M13.4793624,8.57418904 C16.0259525,8.57418904 18.0903921,10.5621679 18.0903921,13.0144399 C18.0903921,15.4667461 16.0259525,17.454725 13.4793624,17.454725 C10.9327723,17.454725 8.86833267,15.4667461 8.86833267,13.0144399 C8.86833267,10.5621679 10.9327723,8.57418904 13.4793624,8.57418904 Z M13.4794337,10.1321983 C11.8263921,10.1321983 10.486301,11.4225877 10.486301,13.0144055 C10.486301,14.6062234 11.8263208,15.8966815 13.4793624,15.8966815 C15.132404,15.8966815 16.472495,14.6062577 16.472495,13.0144399 C16.472495,11.4226564 15.1324752,10.1321983 13.4794337,10.1321983 Z M18.2725521,7.36117492 C18.867657,7.36117492 19.350057,7.82574257 19.350057,8.39877228 C19.350057,8.9718363 18.867657,9.43636964 18.2725521,9.43636964 C17.6774828,9.43636964 17.1950828,8.9718363 17.1950828,8.39877228 C17.1950828,7.82574257 17.6774828,7.36117492 18.2725521,7.36117492 Z" id="instagram"></path>
                </g>
            </g>
        </g>
    </g>
</svg>