<?xml version="1.0" encoding="UTF-8"?>
<svg width="28px" height="28px" viewBox="0 0 28 28" version="1.1" xmlns="http://www.w3.org/2000/svg" xmlns:xlink="http://www.w3.org/1999/xlink">
    <title>2A316C39-9FC0-421A-B419-771EC900F95B</title>
    <g id="05---Our-Music" stroke="none" stroke-width="1" fill="none" fill-rule="evenodd">
        <g id="Desktop/Our-Music" transform="translate(-1368.000000, -1174.000000)" fill="#173D32" fill-rule="nonzero">
            <g id="Block-" transform="translate(1368.000000, 779.000000)">
                <g id="icon/general/phone" transform="translate(0.000000, 395.000000)">
                    <path d="M22.149316,19.475931 C22.1362048,19.4059329 22.0926217,19.3454009 22.0157442,19.3023592 L18.6278671,17.2991421 C18.5839228,17.276146 18.5346009,17.2653964 18.4418206,17.2688774 C18.3324859,17.2674232 18.226697,17.3076405 18.1716073,17.3566131 L17.1239484,18.4204888 C17.0140917,18.5158588 16.8836537,18.5845104 16.7428442,18.62107 L16.5786574,18.642037 L16.4616667,18.642037 L16.3369652,18.6300258 L16.0619567,18.5742075 C15.7959425,18.4988629 15.5400928,18.391406 15.3129982,18.2614131 C14.9234441,18.0503262 14.5502235,17.8103987 14.1950477,17.5425706 C13.6609095,17.1375219 13.1607338,16.6895385 12.7183831,16.2221925 C12.2443849,15.7617476 11.8089631,15.2631896 11.4199311,14.7361419 C11.1535668,14.381871 10.9151024,14.0074596 10.7103324,13.6230286 C10.5346135,13.3023486 10.4050367,12.9584716 10.3174383,12.5591667 C10.3002726,12.4481286 10.3002726,12.3351121 10.3315452,12.1566149 C10.3682339,12.0180936 10.4358196,11.8896807 10.5626995,11.7449217 L11.4314229,10.8761989 C11.493965,10.8137998 11.536406,10.7341146 11.5584312,10.6233769 C11.5702605,10.5728194 11.5628193,10.5196679 11.5317446,10.4636239 L9.64770073,6.9225417 C9.6101679,6.86330403 9.56217097,6.81138897 9.50099518,6.76550227 C9.50002023,6.7647567 9.49882424,6.76439057 9.4941631,6.76439057 C9.45885172,6.76439057 9.42515205,6.77918962 9.38576866,6.82054217 L7.0055496,9.18784704 C6.94142452,9.2474998 6.88972716,9.31924308 6.84290137,9.42097387 C6.80053962,9.50548032 6.7699991,9.59533634 6.75208104,9.68801492 C6.75207522,9.73280377 6.75205459,9.79063992 6.75198146,9.99561132 C6.74758788,10.2443729 6.76859299,10.4929334 6.81618138,10.7457427 C6.88948759,11.1644001 6.99451681,11.5768785 7.13060589,11.9803392 C7.31872904,12.5402331 7.5534444,13.0833761 7.83077601,13.6012594 C8.20394446,14.2899885 8.62710344,14.9504329 9.09775234,15.5784886 C9.69862618,16.3841826 10.3632323,17.1403213 11.1003146,17.8547806 C11.9591703,18.743149 12.9085589,19.5392819 13.9333715,20.2304482 C14.6784921,20.7337333 15.4679937,21.1679592 16.2986831,21.5306613 C17.1450326,21.911399 18.0572754,22.1241279 18.9615741,22.1566204 L19.2381903,22.1566204 C19.3320546,22.1381452 19.4251899,22.1061821 19.5287841,22.0550184 C19.6081637,22.0189616 19.6795889,21.9674934 19.7575287,21.8843589 L22.1293289,19.5315166 C22.1391062,19.522358 22.1475208,19.5120774 22.1544658,19.5009822 C22.1526152,19.492725 22.1508975,19.4843744 22.149316,19.475931 Z M23.4684029,19.2035113 C23.5394326,19.6780217 23.3727818,20.1571426 23.0361287,20.4721226 L20.6964585,22.7926935 C20.5193658,22.9834215 20.3061453,23.1370657 20.0900964,23.2347513 C19.8706083,23.3439962 19.6355056,23.418541 19.3931699,23.455728 L19.2940741,23.463287 L18.9384106,23.4628763 C17.8418461,23.4239738 16.763276,23.1724585 15.7692448,22.7252408 C14.8723198,22.3336659 14.0130066,21.8610436 13.2023744,21.313509 C12.1024236,20.5716674 11.0830532,19.7168495 10.1760416,18.7781643 C9.40386368,18.0301997 8.69299934,17.2214318 8.05120504,16.3608659 C7.54316012,15.6829103 7.08550155,14.9686208 6.68039742,14.2209341 C6.36708863,13.6358863 6.10336213,13.0256102 5.89223155,12.3972399 C5.73522007,11.9317526 5.61382519,11.4550018 5.53060743,10.979422 C5.46806572,10.6475621 5.43955505,10.3101859 5.44541667,9.98407407 L5.44541667,9.63310185 L5.45269609,9.53584554 C5.48938453,9.29213166 5.56433729,9.05574219 5.66425354,8.85743939 C5.77193613,8.62096405 5.92531336,8.40811402 6.0997869,8.24630968 L8.44903754,5.90980756 C8.71890074,5.62281452 9.0948601,5.45935393 9.48536602,5.45770257 C9.77767953,5.45502381 10.0625365,5.54997615 10.2896863,5.72372311 C10.4726312,5.86083117 10.6291055,6.03007889 10.7762184,6.26572798 L12.6791984,9.83866019 C12.8625969,10.1680507 12.9166265,10.5539766 12.835881,10.8970491 C12.7691778,11.2397363 12.6014644,11.554627 12.3548468,11.8006801 L11.6497555,12.5035565 C11.7015703,12.6743325 11.7714685,12.8404368 11.8598877,13.001867 C12.0365102,13.333372 12.2385973,13.6506676 12.4677599,13.9555014 C12.8177769,14.4296547 13.206106,14.8742914 13.6477164,15.3040444 C14.0600084,15.7388852 14.5071155,16.1393377 14.9831701,16.5003433 C15.2849126,16.7278763 15.6032506,16.9325221 15.9484621,17.1197721 C16.0964035,17.2043304 16.2540911,17.2705592 16.3647015,17.3042798 L16.3874766,17.3087083 L17.264985,16.4163246 C17.5909281,16.1187797 18.0179073,15.956457 18.4159458,15.9631834 C18.6995859,15.9481569 18.9820447,16.0097184 19.263191,16.157826 L22.6658998,18.1690499 C22.953614,18.3291978 23.1795947,18.5751008 23.3157858,18.8677917 C23.3929221,18.9556496 23.4481704,19.0683491 23.4684029,19.2035113 Z" id="phone"></path>
                </g>
            </g>
        </g>
    </g>
</svg>