<svg xmlns="http://www.w3.org/2000/svg" width="103" height="160" viewBox="0 0 103 160">
    <g fill="none" fill-rule="evenodd">
        <g fill="#FFF">
            <g>
                <g>
                    <g>
                        <path d="M90.028 75.296c-2.421-3.68-10.798-10.893-19.657-18.53-1.933-1.692-3.87-3.335-5.78-4.994 2.762-4.148 10.673-14.2 12.093-18.834 5.331-18.36-4.847-28.378-16.162-31.606C57.514.453 54.395.005 51.26 0c-7.365 0-14.065 2.466-18.867 6.942-7.627 7.123-9.525 19.754-4.513 30.065 1.91 3.951 5.115 8.33 8.86 13.02-5.461 4.064-22.01 17.971-30.284 34.993-7.66 15.736-8.496 30.619-2.54 45.496C10.847 147.866 30.203 160 50.957 160c3.986.002 7.96-.45 11.843-1.349 21.913-5.08 34.666-17.445 39.025-37.758 3.392-15.854-.574-31.154-11.798-45.597zm-21.709 67.569c-5.903 2.673-12.31 4.071-18.799 4.103-7.388 0-15.071-2.641-22.93-7.862-11.134-7.388-17.845-19.556-17.498-31.764.596-21.187 26.317-46.11 32.279-51.687l2.386 2.822.04.045v.034c-3.898 3.606-30.17 28.157-30.96 48.335-.438 11.536 4.79 21.023 15.605 28.22 7.138 4.734 14.679 7.144 22.39 7.144 5.713-.05 11.35-1.304 16.538-3.68 10.945-4.853 26.676-19.567 16.293-43.926-6.82-16.052-27.977-36.432-28.153-36.595-.176-.164-21.828-18.157-23.238-32.363-.43-4.198.854-8.393 3.563-11.643 3.732-4.627 9.387-7.306 15.356-7.276 3.394.033 6.744.767 9.837 2.157C69.24 12.603 72.78 21.312 71.33 27.272c-1.875 7.754-10.286 17.603-11.974 19.866l.051.045c-.92-.824-1.818-1.63-2.693-2.432 1.625-2.1 9.297-10.278 10.979-17.248 1.5-6.208-1.853-12.547-8.155-15.408-2.661-1.277-5.57-1.966-8.524-2.02-4.74 0-8.945 2.122-12.435 6.287-2.273 2.67-3.012 5.644-2.466 9.68 1.773 12.94 20.31 28.044 20.527 28.219.216.175 24.402 23.67 31.347 40.202 3.307 7.862 11.616 34.518-19.669 48.402zM52.8 69.494c6.058 7.732 11.144 15.413 12.878 22.576 1.773 7.303.045 13.359-4.888 17.061-5.613 4.22-13.377 4.18-18.947-.096-5.683-4.357-7.422-11.35-4.688-17.27 3.867-8.275 9.162-15.814 15.645-22.277v.006zm-1.841-30.178c-3.876-3.878-6.689-7.236-7.581-9.635-1.705-4.61-.569-8.465 2.966-10.097 1.608-.668 3.338-.994 5.08-.959 1.654-.028 3.297.265 4.837.864 1.646.677 2.94 1.995 3.58 3.645.73 2.127.582 4.454-.409 6.474-1.012 2.201-7.15 8.77-8.473 9.702v.006z" transform="translate(-159 -3122) translate(0 2824) translate(0 221) translate(159 77)"/>
                    </g>
                </g>
            </g>
        </g>
    </g>
</svg>
