<svg xmlns="http://www.w3.org/2000/svg" width="20" height="20" viewBox="0 0 20 20">
    <g fill="none" fill-rule="evenodd">
        <g fill="#173D32" fill-rule="nonzero">
            <path d="M800 387c.552 0 1 .293 1 .653V389h2.539c.807 0 1.461.63 1.461 1.408v15.184c0 .778-.654 1.408-1.461 1.408H786.46c-.807 0-1.461-.63-1.461-1.408v-15.184c0-.778.654-1.408 1.461-1.408H791v-1.347c0-.36.448-.653 1-.653s1 .293 1 .653V389h6v-1.347c0-.36.448-.653 1-.653zm-13.527 9.937l.001 8.642h17.052V397h-16.798c-.09 0-.176-.022-.255-.063zM791 390.42h-4.526v4.643c.078-.04.164-.063.254-.063h16.798v-4.58H801v1.927c0 .36-.448.653-1 .653s-1-.293-1-.653v-1.927h-6v1.927c0 .36-.448.653-1 .653s-1-.293-1-.653v-1.927z" transform="translate(-785 -387)"/>
        </g>
    </g>
</svg>
