<svg xmlns="http://www.w3.org/2000/svg" width="363" height="564" viewBox="0 0 363 564">
    <g fill="none" fill-rule="evenodd" opacity=".025">
        <g fill="#183D32">
            <g>
                <path d="M317.283 265.418c-8.532-12.972-38.054-38.398-69.278-65.315-6.81-5.969-13.639-11.758-20.368-17.607 9.733-14.623 37.613-50.056 42.62-66.39 18.786-64.718-17.084-100.03-56.96-111.41C202.693 1.597 191.701.016 180.65 0c-25.957 0-49.57 8.694-66.494 24.47C87.279 49.579 80.59 94.104 98.254 130.45c6.73 13.927 18.026 29.366 31.224 45.898-19.247 14.325-77.569 63.346-106.73 123.348-26.998 55.467-29.942 107.93-8.952 160.373C38.23 521.226 106.446 564 179.589 564c14.05.006 28.055-1.589 41.739-4.755C298.557 541.34 343.5 497.75 358.86 426.148c11.957-55.884-2.022-109.82-41.578-160.73zm-76.508 238.181c-20.806 9.422-43.387 14.352-66.253 14.464-26.037 0-53.115-9.311-80.814-27.714-39.235-26.042-62.888-68.936-61.667-111.968 2.103-74.686 92.75-162.541 113.76-182.198l8.412 9.948.14.159v.12c-13.739 12.712-106.33 99.255-109.113 170.38-1.542 40.664 16.884 74.108 54.997 99.474 25.156 16.691 51.733 25.186 78.911 25.186 20.133-.176 39.999-4.597 58.282-12.971 38.575-17.11 94.013-68.976 57.421-154.842-24.034-56.58-98.599-128.421-99.22-128.998-.62-.577-76.928-64.002-81.895-114.078-1.515-14.799 3.008-29.584 12.558-41.043 13.15-16.308 33.082-25.753 54.116-25.645 11.962.115 23.77 2.703 34.669 7.6 28.94 12.952 41.418 43.65 36.311 64.66-6.61 27.335-36.25 62.051-42.2 70.029l.181.16c-3.245-2.905-6.41-5.75-9.493-8.575 5.728-7.401 32.766-36.23 38.694-60.8 5.288-21.884-6.53-44.226-28.74-54.312-9.379-4.502-19.628-6.932-30.043-7.123-16.703 0-31.524 7.48-43.821 22.163-8.012 9.41-10.615 19.895-8.693 34.12 6.25 45.619 71.581 98.858 72.342 99.474.761.617 86.001 83.44 110.476 141.712 11.656 27.713 40.937 121.677-69.318 170.618zm-54.697-258.633c21.35 27.256 39.275 54.333 45.384 79.58 6.249 25.743.16 47.09-17.224 60.141-19.783 14.872-47.145 14.734-66.774-.338-20.028-15.359-26.157-40.008-16.523-60.878 13.629-29.168 32.29-55.744 55.137-78.525v.02zm-6.489-106.378c-13.66-13.668-23.573-25.506-26.718-33.96-6.008-16.255-2.002-29.843 10.455-35.593 5.666-2.354 11.765-3.506 17.905-3.382 5.827-.1 11.617.934 17.044 3.044 5.8 2.388 10.36 7.033 12.618 12.852 2.57 7.497 2.052 15.7-1.442 22.82-3.565 7.759-25.195 30.916-29.862 34.199v.02z" transform="translate(-899 -143) translate(899 143)"/>
            </g>
        </g>
    </g>
</svg>
