<svg xmlns="http://www.w3.org/2000/svg" width="27" height="27" viewBox="0 0 27 27">
    <g fill="none" fill-rule="evenodd">
        <g fill="#FFF" fill-rule="nonzero">
            <g>
                <g>
                    <g>
                        <g>
                            <path d="M21.358 18.78c-.012-.067-.054-.126-.129-.167l-3.266-1.932c-.043-.022-.09-.032-.18-.029-.105-.001-.207.038-.26.085l-1.01 1.026c-.107.092-.232.158-.368.193l-.158.02h-.113l-.12-.011-.266-.054c-.256-.073-.503-.176-.722-.302-.376-.203-.735-.435-1.078-.693-.515-.39-.997-.823-1.424-1.273-.457-.444-.877-.925-1.252-1.433-.257-.342-.487-.703-.684-1.074-.17-.309-.295-.64-.379-1.025-.017-.107-.017-.216.014-.389.035-.133.1-.257.222-.397l.838-.837c.06-.06.101-.137.123-.244.011-.049.004-.1-.026-.154L9.303 6.675c-.036-.057-.082-.107-.141-.151l-.007-.001c-.034 0-.066.014-.104.054L6.755 8.86c-.061.057-.111.126-.156.225-.041.081-.07.168-.088.257v.297c-.004.24.016.48.062.723.07.404.172.801.303 1.19.181.54.408 1.064.675 1.564.36.664.768 1.3 1.222 1.906.58.777 1.22 1.506 1.93 2.195.83.857 1.745 1.624 2.733 2.29.718.486 1.48.905 2.28 1.255.817.367 1.696.572 2.568.603h.267c.09-.018.18-.048.28-.098.077-.034.146-.084.22-.164l2.288-2.269c.01-.009.018-.019.024-.03l-.005-.024zm1.272-.262c.069.457-.092.92-.417 1.223l-2.256 2.238c-.17.184-.376.332-.584.426-.212.105-.439.177-.672.213l-.096.007h-.343c-1.057-.038-2.097-.28-3.056-.711-.865-.378-1.693-.834-2.475-1.362-1.06-.715-2.044-1.54-2.918-2.444-.745-.722-1.43-1.502-2.05-2.331-.49-.654-.93-1.343-1.321-2.064-.302-.564-.557-1.153-.76-1.759-.152-.448-.269-.908-.349-1.367-.06-.32-.088-.645-.082-.96V9.29l.007-.094c.035-.235.108-.463.204-.654.104-.228.252-.433.42-.59L8.147 5.7c.26-.277.623-.435 1-.436.281-.003.556.089.775.256.177.133.327.296.47.523l1.834 3.445c.177.318.23.69.151 1.02-.064.331-.226.635-.463.872l-.68.678c.05.165.117.325.202.48.17.32.366.626.586.92.338.457.712.886 1.138 1.3.398.42.829.806 1.288 1.154.291.22.598.417.93.597.144.082.296.146.402.178l.022.005.846-.861c.315-.287.726-.443 1.11-.437.274-.014.546.045.817.188l3.281 1.94c.278.154.496.39.627.673.074.085.128.193.147.324z" transform="translate(-1043 -3212) translate(0 2824) translate(0 221) translate(1043 72) translate(0 95)"/>
                        </g>
                    </g>
                </g>
            </g>
        </g>
    </g>
</svg>
