<svg xmlns="http://www.w3.org/2000/svg" width="20" height="25" viewBox="0 0 20 25">
    <g fill="none" fill-rule="evenodd">
        <g fill="#173D32" fill-rule="nonzero">
            <path d="M805 476.569v.02c-.003 1.755-.504 3.473-1.461 4.978l-6.23 9.21c-.2.296-.457.551-.755.751-1.276.854-3.005.517-3.864-.751l-6.244-9.232c-.942-1.483-1.443-3.2-1.446-4.976.115-5.392 4.597-9.673 9.982-9.567 5.42-.106 9.903 4.175 10.018 9.567zm-10.018-7.721c-4.397-.087-8.034 3.386-8.127 7.739.003 1.406.405 2.783 1.146 3.95l6.23 9.209c.285.423.862.535 1.287.25.1-.066.185-.151.252-.25l6.215-9.188c.753-1.185 1.155-2.558 1.16-3.96-.1-4.37-3.733-7.837-8.163-7.75zM795 472c2.2 0 4 1.78 4 4 0 2.22-1.8 4-4 4s-4-1.78-4-4c0-2.22 1.8-4 4-4zm0 1.846c-1.237 0-2.223.975-2.223 2.154 0 1.18.986 2.154 2.223 2.154 1.237 0 2.223-.975 2.223-2.154 0-1.18-.986-2.154-2.223-2.154z" transform="translate(-785 -467)"/>
        </g>
    </g>
</svg>
