<svg xmlns="http://www.w3.org/2000/svg" viewBox="0 0 55 55"><defs><style>.cls-1{fill:#595a5b;}</style></defs><title>logistic</title><g id="Layer_2" data-name="Layer 2"><g id="Layer_1-2" data-name="Layer 1"><path class="cls-1" d="M15.14,55a2.79,2.79,0,1,1,2.59-3.81H22.2a2.51,2.51,0,0,0,2.29-1.51,4.43,4.43,0,0,1-.52,0,1,1,0,0,1-1-1V38.09a1,1,0,0,1,1-1,6,6,0,0,1,.74,0v-.79a9.57,9.57,0,1,0-19.13,0v.79a6,6,0,0,1,.74,0,1,1,0,0,1,1,1V48.68a1,1,0,0,1-1,1,6.31,6.31,0,0,1-2.79-12V36.33a11.62,11.62,0,1,1,23.23,0v1.39a6.31,6.31,0,0,1,0,11.35,4.55,4.55,0,0,1-4.52,4.16H17.73A2.8,2.8,0,0,1,15.14,55Zm0-3.53a.74.74,0,1,0,.75.74A.74.74,0,0,0,15.14,51.47ZM5.3,39.24a4.27,4.27,0,0,0,0,8.29ZM25,47.53a4.27,4.27,0,0,0,0-8.29Z"/><path class="cls-1" d="M26.62,37.81V36.33a11.48,11.48,0,1,0-23,0v1.48A6.17,6.17,0,0,0,6.32,49.56a.87.87,0,0,0,.88-.88V38.09a.87.87,0,0,0-.88-.88,6.4,6.4,0,0,0-.88.07v-1a9.71,9.71,0,1,1,19.41,0v1a6.4,6.4,0,0,0-.88-.07.87.87,0,0,0-.88.88V48.68a.87.87,0,0,0,.88.88c.25,0,.49,0,.73,0a2.63,2.63,0,0,1-2.5,1.81H17.63a2.65,2.65,0,1,0,0,1.76H22.2A4.41,4.41,0,0,0,26.59,49a6.16,6.16,0,0,0,0-11.16ZM5.44,47.71a4.41,4.41,0,0,1,0-8.65Zm9.7,5.38a.88.88,0,1,1,.89-.88A.88.88,0,0,1,15.14,53.09Zm9.71-5.38V39.06a4.41,4.41,0,0,1,0,8.65Z"/><path class="cls-1" d="M37.21,32.05a1,1,0,0,1-.39-.07,1,1,0,0,1-.64-.95V26.76H27.5A2.79,2.79,0,0,1,24.71,24V2.79A2.79,2.79,0,0,1,27.5,0H52.21A2.79,2.79,0,0,1,55,2.79V24a2.79,2.79,0,0,1-2.79,2.79H42.87l-4.94,5A1,1,0,0,1,37.21,32.05Zm-9.71-30a.74.74,0,0,0-.74.74V24a.74.74,0,0,0,.74.74h9.71a1,1,0,0,1,1,1v2.83L41.78,25a1,1,0,0,1,.72-.3h9.71A.74.74,0,0,0,53,24V2.79a.74.74,0,0,0-.74-.74Z"/><path class="cls-1" d="M52.21.14H27.5a2.65,2.65,0,0,0-2.65,2.65V24a2.65,2.65,0,0,0,2.65,2.65h8.83V31a.88.88,0,0,0,.54.82,1,1,0,0,0,.34.06.87.87,0,0,0,.62-.26l5-5h9.34A2.65,2.65,0,0,0,54.86,24V2.79A2.65,2.65,0,0,0,52.21.14ZM53.09,24a.87.87,0,0,1-.88.88H42.5a.9.9,0,0,0-.62.26L38.09,28.9V25.73a.88.88,0,0,0-.88-.88H27.5a.87.87,0,0,1-.88-.88V2.79a.87.87,0,0,1,.88-.88H52.21a.87.87,0,0,1,.88.88Z"/><path class="cls-1" d="M38.09,23.23a1,1,0,0,1-1-1V21l-.5-.2-1.29,1.29a1,1,0,0,1-1.44,0L31.19,19.4a1,1,0,0,1,0-1.45l1.28-1.29c-.07-.16-.14-.32-.2-.49H31a1,1,0,0,1-1-1V11.61a1,1,0,0,1,1-1h1.24c.06-.17.13-.33.2-.5L31.19,8.81a1,1,0,0,1,0-1.45l2.65-2.65a1,1,0,0,1,1.44,0L36.57,6l.5-.2V4.55a1,1,0,0,1,1-1h3.53a1,1,0,0,1,1,1V5.8l.5.2,1.29-1.29a1,1,0,0,1,1.44,0l2.65,2.65a1,1,0,0,1,0,1.45l-1.28,1.28c.07.17.14.33.2.5h1.24a1,1,0,0,1,1,1v3.53a1,1,0,0,1-1,1H47.44c-.06.17-.13.33-.2.49L48.52,18a1,1,0,0,1,.3.72,1,1,0,0,1-.3.73l-2.65,2.65a1,1,0,0,1-1.44,0l-1.29-1.29-.5.2V22.2a1,1,0,0,1-1,1Zm2.51-2.05v-1a1,1,0,0,1,.76-1,6.21,6.21,0,0,0,1.48-.6,1,1,0,0,1,1.23.17l1.08,1.08,1.2-1.2-1.08-1.08a1,1,0,0,1-.17-1.23,5.88,5.88,0,0,0,.59-1.47,1,1,0,0,1,1-.77h1V12.64h-1a1,1,0,0,1-1-.77,5.73,5.73,0,0,0-.59-1.47,1,1,0,0,1,.17-1.23l1.08-1.09-1.2-1.2L44.07,8a1.06,1.06,0,0,1-.73.3,1,1,0,0,1-.5-.14,6.63,6.63,0,0,0-1.48-.59,1,1,0,0,1-.76-1v-1H39.11v1a1,1,0,0,1-.76,1,6.63,6.63,0,0,0-1.48.59,1,1,0,0,1-.5.14,1.06,1.06,0,0,1-.73-.3L34.56,6.88l-1.2,1.2,1.08,1.09a1,1,0,0,1,.17,1.23A5.73,5.73,0,0,0,34,11.87a1,1,0,0,1-1,.77h-1v1.48h1a1,1,0,0,1,1,.77,5.73,5.73,0,0,0,.59,1.47,1,1,0,0,1-.17,1.23l-1.08,1.08,1.2,1.2,1.08-1.08a1,1,0,0,1,.73-.3,1.14,1.14,0,0,1,.51.13,6,6,0,0,0,1.47.6,1,1,0,0,1,.76,1v1Z"/><path class="cls-1" d="M48.68,10.73H47.34c-.08-.23-.17-.45-.27-.67l1.35-1.35a.88.88,0,0,0,0-1.25L45.77,4.81a.9.9,0,0,0-1.24,0L43.17,6.17c-.22-.1-.44-.19-.67-.27V4.55a.88.88,0,0,0-.88-.88H38.09a.88.88,0,0,0-.88.88V5.9c-.23.08-.45.17-.67.27L35.18,4.81a.87.87,0,0,0-1.24,0L31.29,7.46a.88.88,0,0,0,0,1.25l1.35,1.35c-.1.22-.19.44-.27.67H31a.88.88,0,0,0-.88.88v3.53A.88.88,0,0,0,31,16h1.34c.08.22.17.45.27.67l-1.35,1.35a.88.88,0,0,0,0,1.25L33.94,22a.9.9,0,0,0,1.24,0l1.36-1.36c.22.1.44.19.67.27V22.2a.88.88,0,0,0,.88.89h3.53a.88.88,0,0,0,.88-.89V20.86c.23-.08.45-.17.67-.27L44.53,22a.89.89,0,0,0,.62.25.87.87,0,0,0,.62-.25l2.65-2.65a.88.88,0,0,0,0-1.25L47.07,16.7c.1-.22.19-.45.27-.67h1.34a.88.88,0,0,0,.88-.89V11.61A.88.88,0,0,0,48.68,10.73Zm-.88,3.53H46.68a.88.88,0,0,0-.85.66,5.9,5.9,0,0,1-.61,1.51.89.89,0,0,0,.15,1.06l1.18,1.18-1.4,1.4L44,18.89a.88.88,0,0,0-1.06-.14,6.18,6.18,0,0,1-1.51.6.89.89,0,0,0-.66.86v1.11H39V20.21a.89.89,0,0,0-.66-.86,6,6,0,0,1-1.5-.6.89.89,0,0,0-1.07.14l-1.18,1.18-1.4-1.4,1.18-1.18a.88.88,0,0,0,.15-1.06,5.9,5.9,0,0,1-.61-1.51.88.88,0,0,0-.85-.66H31.91V12.5H33a.89.89,0,0,0,.85-.67,6,6,0,0,1,.61-1.5.88.88,0,0,0-.15-1.06L33.16,8.08l1.4-1.4,1.18,1.19A.89.89,0,0,0,36.81,8a6.38,6.38,0,0,1,1.5-.61A.88.88,0,0,0,39,6.55V5.44h1.77V6.55a.88.88,0,0,0,.66.85A6.64,6.64,0,0,1,42.91,8,.88.88,0,0,0,44,7.87l1.18-1.19,1.4,1.4L45.37,9.27a.89.89,0,0,0-.15,1.06,6,6,0,0,1,.61,1.5.89.89,0,0,0,.85.67H47.8Z"/><path class="cls-1" d="M39.86,17.93a4.55,4.55,0,1,1,4.55-4.55A4.56,4.56,0,0,1,39.86,17.93Zm0-7.06a2.51,2.51,0,1,0,2.5,2.51A2.51,2.51,0,0,0,39.86,10.87Z"/><path class="cls-1" d="M39.86,9a4.41,4.41,0,1,0,4.41,4.41A4.42,4.42,0,0,0,39.86,9Zm0,7.06a2.65,2.65,0,1,1,2.64-2.65A2.65,2.65,0,0,1,39.86,16Z"/><path class="cls-1" d="M14.26,23.23a1,1,0,0,1-.72-.3l-3.27-3.27-7.48,0A2.79,2.79,0,0,1,0,16.91V2.79A2.79,2.79,0,0,1,2.79,0H18.67a2.79,2.79,0,0,1,2.79,2.79V16.91a2.79,2.79,0,0,1-2.79,2.79H15.28v2.5a1,1,0,0,1-1,1ZM2.79,2.05a.74.74,0,0,0-.74.74V16.91a.74.74,0,0,0,.74.74h7.94a1,1,0,0,1,.73.3l1.78,1.78V18.67a1,1,0,0,1,1-1h4.41a.75.75,0,0,0,.75-.74V2.79a.75.75,0,0,0-.75-.74Z"/><path class="cls-1" d="M2.79,19.56h7.58l3.27,3.27a.87.87,0,0,0,.62.26A.8.8,0,0,0,14.6,23a.88.88,0,0,0,.54-.82V19.56h3.53a2.65,2.65,0,0,0,2.65-2.65V2.79A2.65,2.65,0,0,0,18.67.14H2.79A2.65,2.65,0,0,0,.14,2.79V16.91A2.65,2.65,0,0,0,2.79,19.56ZM1.91,2.79a.87.87,0,0,1,.88-.88H18.67a.88.88,0,0,1,.89.88V16.91a.88.88,0,0,1-.89.88H14.26a.88.88,0,0,0-.88.88v1.4l-2-2a.88.88,0,0,0-.63-.26H2.79a.87.87,0,0,1-.88-.88Z"/><rect class="cls-1" x="3.53" y="3.53" width="14.4" height="2.05"/><path class="cls-1" d="M3.67,3.67H17.79V5.44H3.67Z"/><rect class="cls-1" x="5.3" y="7.06" width="10.87" height="2.05"/><path class="cls-1" d="M5.44,7.2H16V9H5.44Z"/><rect class="cls-1" x="3.53" y="10.59" width="14.4" height="2.05"/><path class="cls-1" d="M3.67,10.73H17.79V12.5H3.67Z"/><rect class="cls-1" x="5.3" y="14.12" width="10.87" height="2.05"/><path class="cls-1" d="M5.44,14.26H16V16H5.44Z"/><rect class="cls-1" x="39.71" y="38.83" width="14.4" height="2.05"/><path class="cls-1" d="M39.86,39H54v1.77H39.86Z"/><rect class="cls-1" x="36.18" y="38.83" width="2.05" height="2.05"/><path class="cls-1" d="M36.33,39h1.76v1.77H36.33Z"/><rect class="cls-1" x="32.65" y="42.36" width="17.93" height="2.05"/><path class="cls-1" d="M32.79,42.5H50.45v1.77H32.79Z"/><rect class="cls-1" x="36.18" y="45.89" width="17.93" height="2.05"/><path class="cls-1" d="M36.33,46H54V47.8H36.33Z"/></g></g></svg>