<svg xmlns="http://www.w3.org/2000/svg" viewBox="0 0 31.82 25"><defs><style>.cls-1{fill:#232323;}</style></defs><title>mail</title><g id="Layer_2" data-name="Layer 2"><g id="Capa_1" data-name="Capa 1"><path class="cls-1" d="M29,25a2.76,2.76,0,0,0,1.86-.7l-9-9-.62.45c-.67.5-1.22.89-1.64,1.16a9.92,9.92,0,0,1-1.68.86,5.11,5.11,0,0,1-1.95.43h0a5.11,5.11,0,0,1-2-.43,9.92,9.92,0,0,1-1.68-.86c-.42-.27-1-.66-1.64-1.16L10,15.28l-9,9a2.76,2.76,0,0,0,1.86.7Z"/><path class="cls-1" d="M1.79,9.61A9.55,9.55,0,0,1,0,8.06V21.78l8-8Q5.57,12.17,1.79,9.61Z"/><path class="cls-1" d="M30,9.61q-3.63,2.45-6.16,4.22l7.94,8V8.06A10,10,0,0,1,30,9.61Z"/><path class="cls-1" d="M29,0H2.84A2.54,2.54,0,0,0,.74.92,3.61,3.61,0,0,0,0,3.23,4.19,4.19,0,0,0,1,5.66,8.9,8.9,0,0,0,3.05,7.71l3.64,2.53c1.1.75,2.05,1.41,2.86,2l1.8,1.26.26.19.49.35,1,.67c.25.17.56.37.92.58a5.77,5.77,0,0,0,1,.48,2.75,2.75,0,0,0,.89.16h0a2.65,2.65,0,0,0,.88-.16,6.18,6.18,0,0,0,1-.48c.36-.21.66-.41.92-.58l1-.67.49-.35.26-.19,1.8-1.25,6.51-4.52A8.52,8.52,0,0,0,31,5.52a4.67,4.67,0,0,0,.87-2.68,2.71,2.71,0,0,0-.85-2A2.74,2.74,0,0,0,29,0Z"/></g></g></svg>