<svg xmlns="http://www.w3.org/2000/svg" viewBox="0 0 15.03 15"><defs><style>.cls-1{fill:#232323;}</style></defs><title>tel</title><g id="Layer_2" data-name="Layer 2"><g id="Capa_1" data-name="Capa 1"><path class="cls-1" d="M14.7,11.86,12.38,9.54a1.22,1.22,0,0,0-1.71,0L9.5,10.74l-.23-.12a11.66,11.66,0,0,1-2.82-2,11.85,11.85,0,0,1-2-2.82l-.13-.22.78-.79.39-.38a1.21,1.21,0,0,0,0-1.71L3.17.34a1.21,1.21,0,0,0-1.71,0L.81,1h0A3.61,3.61,0,0,0,.29,2,3.47,3.47,0,0,0,.05,3c-.31,2.54.85,4.87,4,8,4.36,4.35,7.87,4,8,4a4.17,4.17,0,0,0,1-.24,3.84,3.84,0,0,0,1-.54h0l.67-.65A1.22,1.22,0,0,0,14.7,11.86Z"/></g></g></svg>