<svg xmlns="http://www.w3.org/2000/svg" viewBox="0 0 65.88 40"><defs><style>.cls-1{fill:#595a5b;}</style></defs><title>truck_1</title><g id="Layer_2" data-name="Layer 2"><g id="Layer_1-2" data-name="Layer 1"><path class="cls-1" d="M65.56,20.74,61.18,10.18A2.41,2.41,0,0,0,59,8.64H47.2a2.44,2.44,0,0,0-2.4,2.47V27.42H34.53V25.35a10.66,10.66,0,0,0,9.2-10.59v-.23A10.66,10.66,0,0,0,33.14,3.83H31V1.43A1.42,1.42,0,0,0,29.59,0H24.37A1.42,1.42,0,0,0,23,1.43v2.4H10.59A10.66,10.66,0,0,0,0,14.53v.23A10.66,10.66,0,0,0,9.2,25.35v2.07H7.47a2.89,2.89,0,0,0-2.87,2.9v.28a2.88,2.88,0,0,0,2.87,2.9h1a6.47,6.47,0,1,0,12.94,0h2a6.47,6.47,0,1,0,12.94,0H48.87a6.47,6.47,0,1,0,12.94,0h1.67A2.44,2.44,0,0,0,65.88,31V22.41A4.25,4.25,0,0,0,65.56,20.74Zm-31-14.4a8.29,8.29,0,0,1,6.85,8.19v.23A8.29,8.29,0,0,1,34.53,23ZM2.35,14.76v-.23A8.3,8.3,0,0,1,9.2,6.34V23A8.3,8.3,0,0,1,2.35,14.76ZM8.88,31.12H7.47A.53.53,0,0,1,7,30.6v-.28a.52.52,0,0,1,.52-.52H9.56A6.86,6.86,0,0,0,8.88,31.12ZM25.31,2.38h3.34V3.83H25.31ZM11.55,6.21H32.17V23.08H11.55Zm3.37,31.41A4.16,4.16,0,1,1,19,33.47,4.14,4.14,0,0,1,14.92,37.62Zm8.87-6.5H21a6.34,6.34,0,0,0-.68-1.32h4.2A6.34,6.34,0,0,0,23.79,31.12Zm-6.41-3.7a6.42,6.42,0,0,0-4.92,0h-.91v-2H32.17v1.92a6.39,6.39,0,0,0-4.81,0Zm12.44,10.2a4.16,4.16,0,1,1,4.12-4.15A4.14,4.14,0,0,1,29.82,37.62Zm15-6.5H35.86a6.86,6.86,0,0,0-.68-1.32H44.8Zm8.65-20.06,5.56,0L62.7,20H55.8l-2.35-2.33Zm1.89,26.56a4.16,4.16,0,1,1,4.12-4.15A4.14,4.14,0,0,1,55.34,37.62Zm8.14-6.5H61.37a6.43,6.43,0,0,0-12.06,0H47.15L47.2,11l3.89,0v6.63a2.51,2.51,0,0,0,.76,1.8l2.33,2.25a2.35,2.35,0,0,0,1.64.67h7.71v0Z"/><path class="cls-1" d="M55.34,31.09a2.38,2.38,0,1,0,2.36,2.38A2.37,2.37,0,0,0,55.34,31.09Z"/><path class="cls-1" d="M29.82,31.09a2.38,2.38,0,1,0,2.36,2.38A2.37,2.37,0,0,0,29.82,31.09Z"/><path class="cls-1" d="M14.92,31.09a2.38,2.38,0,1,0,2.35,2.38A2.38,2.38,0,0,0,14.92,31.09Z"/></g></g></svg>