<?xml version="1.0" encoding="utf-8"?>
<!-- Generator: Adobe Illustrator 22.1.0, SVG Export Plug-In . SVG Version: 6.00 Build 0)  -->
<svg version="1.1" id="Capa_1" xmlns="http://www.w3.org/2000/svg" xmlns:xlink="http://www.w3.org/1999/xlink" x="0px" y="0px"
	 width="57px" height="54px" viewBox="0 0 57 54" style="enable-background:new 0 0 57 54;" xml:space="preserve">
<style type="text/css">
	.st0{fill:none;stroke:#31344A;stroke-width:4;stroke-linecap:round;stroke-linejoin:round;stroke-miterlimit:10;}
</style>
<g>
	<g>
		<path class="st0" d="M4.8,27c0,3,3,5.4,4.1,8.1c1.1,2.7,0.8,6.5,2.8,8.6c2.1,2.1,5.9,1.7,8.6,2.8c2.6,1.1,5,4.1,8.1,4.1
			c3,0,5.4-3,8.1-4.1c2.7-1.1,6.5-0.8,8.6-2.8c2.1-2.1,1.7-5.9,2.8-8.6c1.1-2.6,4.1-5,4.1-8.1c0-3-3-5.4-4.1-8.1
			c-1.1-2.7-0.8-6.5-2.8-8.6c-2.1-2.1-5.9-1.7-8.6-2.8c-2.6-1.1-5-4.1-8.1-4.1c-3,0-5.4,3-8.1,4.1c-2.7,1.1-6.5,0.8-8.6,2.8
			C9.6,12.4,10,16.2,8.9,19C7.8,21.6,4.8,24,4.8,27z"/>
	</g>
	<g>
		<g>
			<g>
				<line class="st0" x1="26.3" y1="31.1" x2="37.1" y2="20.3"/>
				<g>
					<g>
						<line class="st0" x1="26.3" y1="31.1" x2="20.3" y2="25.7"/>
					</g>
				</g>
			</g>
		</g>
		<g>
			<path class="st0" d="M28.3,14.3"/>
		</g>
	</g>
</g>
</svg>
