<?xml version="1.0" encoding="UTF-8"?>
<svg width="65px" height="101px" viewBox="0 0 65 101" version="1.1" xmlns="http://www.w3.org/2000/svg" xmlns:xlink="http://www.w3.org/1999/xlink">
    <title>D5136E94-6D09-474C-B2D0-5EB383C61A52</title>
    <g id="01---Home" stroke="none" stroke-width="1" fill="none" fill-rule="evenodd">
        <g id="Mobile/Home/Home" transform="translate(-155.000000, -5232.000000)" fill="#FFFFFF">
            <g id="mOBILE/footer" transform="translate(0.000000, 5182.000000)">
                <g id="Asset-1" transform="translate(155.000000, 50.000000)">
                    <path d="M56.8137452,47.530453 C55.2859741,45.2075495 49.9997425,40.6543736 44.408674,35.8339926 C43.1893262,34.765172 41.966392,33.728416 40.7613894,32.6809718 C42.5043396,30.0623613 47.4964931,23.7171296 48.3930724,20.7921238 C51.757038,9.20254554 45.3339439,2.8786902 38.1935863,0.840805554 C36.2950868,0.286244581 34.3267559,0.00313316144 32.3478893,0 C27.7000222,0 23.4717542,1.55691537 20.4413162,4.38216454 C15.6284785,8.87833662 14.4306486,16.8517384 17.5937803,23.360856 C18.7987829,25.8547708 20.8214658,28.6194535 23.1848489,31.5800866 C19.738398,34.1452561 9.29504236,42.9238361 4.07336452,53.6690461 C-0.760991066,63.6019523 -1.28817969,72.9968856 2.47028073,82.3882561 C6.84558771,93.3401047 19.0605841,100.999989 32.1578145,100.999989 C34.6736976,101.001155 37.1814028,100.715454 39.6316995,100.148492 C53.4605386,96.9420302 61.5082344,89.136077 64.2589397,76.3137923 C66.3999711,66.3060685 63.8967217,56.6474929 56.8137452,47.530453 Z M43.1140135,90.1835212 C39.3884509,91.8708412 35.3448962,92.7536509 31.2504762,92.7736298 C26.5882639,92.7736298 21.739563,91.1062696 16.7796863,87.8107394 C9.75409096,83.1471188 5.51865035,75.4658612 5.7374157,67.7596646 C6.113979,54.3851559 22.3456506,38.6521163 26.1076974,35.1321338 L27.6139506,36.9135015 L27.6390548,36.9420034 L27.6390548,36.9633798 L27.6390548,36.9633798 C25.1788412,39.2399677 8.59929682,54.7378667 8.10079873,67.4746457 C7.8246523,74.7568769 11.1240641,80.7458351 17.9488258,85.2883227 C22.4532402,88.2774577 27.2122831,89.7987457 32.0789155,89.7987457 C35.6839499,89.7671247 39.2411309,88.9753612 42.5150986,87.4758423 C49.4223455,84.4118898 59.3492715,75.1238386 52.79707,59.7470726 C48.4934893,49.6146532 35.1416304,36.7496156 35.0304546,36.6462963 C34.9192787,36.542977 21.2554102,25.1849765 20.3660035,16.2175715 C20.0946047,13.5673172 20.9046228,10.9196628 22.6146244,8.86764841 C24.9693556,5.94721912 28.5383483,4.25581221 32.3048535,4.27511621 C34.4468484,4.29569028 36.5610713,4.75919264 38.5127686,5.6362474 C43.6949969,7.95558815 45.9292725,13.4528889 45.0147616,17.2151374 C43.831277,22.1103359 38.5235275,28.3273092 37.4583913,29.7559661 L37.4906682,29.7844679 L37.4906682,29.7844679 C36.9096848,29.2643086 36.3430467,28.7548374 35.7907538,28.248929 L35.7907538,28.248929 C36.8164405,26.9235914 41.6579687,21.7611878 42.7195186,17.3612096 C43.6663064,13.4422007 41.5503792,9.44124881 37.5731535,7.63494196 C35.893786,6.82875918 34.0585254,6.39362381 32.1936777,6.35948269 C29.2026891,6.35948269 26.5488144,7.6990712 24.3468156,10.3283699 C22.9122888,12.0135438 22.4460675,13.8911053 22.790354,16.4384611 C23.9092849,24.6078134 35.6078516,34.1416933 35.7441317,34.2521381 C35.8804117,34.3625829 51.1437777,49.1942504 55.5262573,59.6295024 C57.613494,64.5923928 62.8566897,81.4191921 43.1140135,90.1835212 Z M33.3197813,43.867961 C33.3197813,43.867961 33.3197813,43.867961 33.3197813,43.867961 L33.3197813,43.867961 L33.3197813,43.867961 C33.3197813,43.867961 33.3197813,43.867961 33.3197813,43.867961 C37.1427954,48.7489085 40.3525493,53.5977913 41.446376,58.1189026 C42.565307,62.7290822 41.4750666,66.5518973 38.3621432,68.8890517 C34.8196796,71.5523082 29.9203023,71.5274907 26.4053617,68.8284852 C22.8190445,66.0780535 21.7216314,61.6638243 23.44665,57.9265149 C25.8871895,52.7031203 29.2285799,47.9440403 33.3197813,43.8643982 L33.3197813,43.867961 Z M32.1578145,24.8180148 L32.1578145,24.8180148 C32.1578145,24.8180148 32.1578145,24.8180148 32.1578145,24.8180148 C29.7119462,22.3704156 27.9367191,20.250588 27.3736673,18.7364255 C26.2977722,15.8256706 27.0150356,13.3923224 29.2457249,12.3626918 C30.2602766,11.9410275 31.3523591,11.7347263 32.4518925,11.7570268 C33.495274,11.7390907 34.532096,11.9242736 35.5038484,12.3021253 C36.542348,12.7297238 37.3589746,13.561584 37.7632283,14.6036524 C38.2235024,15.9462648 38.1306823,17.4152165 37.5050134,18.6901099 C36.866649,20.0795767 32.9934264,24.2266007 32.1578145,24.8144521 L32.1578145,24.8180148 Z" id="Shape"></path>
                </g>
            </g>
        </g>
    </g>
</svg>