<svg xmlns="http://www.w3.org/2000/svg" width="65" height="101" viewBox="0 0 65 101">
    <g fill="none" fill-rule="evenodd">
        <g fill="#FFF">
            <g>
                <g>
                    <g>
                        <path d="M56.814 47.53C55.286 45.208 50 40.654 44.409 35.834c-1.22-1.069-2.443-2.106-3.648-3.153 1.743-2.619 6.735-8.964 7.632-11.889 3.364-11.59-3.06-17.913-10.2-19.951C36.296.286 34.328.003 32.349 0 27.7 0 23.472 1.557 20.44 4.382c-4.813 4.496-6.01 12.47-2.847 18.979 1.205 2.494 3.227 5.258 5.59 8.22-3.446 2.564-13.889 11.343-19.11 22.088-4.835 9.933-5.362 19.328-1.604 28.72C6.846 93.34 19.06 101 32.158 101c2.516.001 5.023-.285 7.474-.852 13.829-3.206 21.876-11.012 24.627-23.834 2.141-10.008-.362-19.667-7.445-28.784zm-13.7 42.654c-3.726 1.687-7.77 2.57-11.864 2.59-4.662 0-9.51-1.668-14.47-4.963C9.754 83.147 5.519 75.466 5.737 67.76c.377-13.375 16.609-29.108 20.37-32.628l1.507 1.782.025.028v.021C25.18 39.24 8.6 54.738 8.101 67.475c-.276 7.282 3.023 13.27 9.848 17.813 4.504 2.99 9.263 4.51 14.13 4.51 3.605-.03 7.162-.823 10.436-2.322 6.907-3.064 16.834-12.352 10.282-27.729-4.304-10.132-17.655-22.997-17.767-23.1-.11-.104-13.775-11.462-14.664-20.43-.271-2.65.539-5.297 2.249-7.35 2.354-2.92 5.923-4.611 9.69-4.592 2.142.02 4.256.484 6.208 1.361 5.182 2.32 7.416 7.817 6.502 11.58-1.184 4.894-6.491 11.111-7.557 12.54l.033.028c-.581-.52-1.148-1.03-1.7-1.535 1.025-1.325 5.867-6.488 6.929-10.888.946-3.919-1.17-7.92-5.147-9.726-1.68-.806-3.514-1.241-5.38-1.276-2.99 0-5.644 1.34-7.846 3.97-1.435 1.685-1.9 3.562-1.557 6.11 1.12 8.169 12.818 17.703 12.954 17.813.136.11 15.4 14.942 19.782 25.378 2.087 4.962 7.33 21.79-12.412 30.554zM33.32 43.868c3.823 4.88 7.033 9.73 8.126 14.25 1.12 4.611.03 8.434-3.084 10.771-3.542 2.663-8.442 2.638-11.957-.06-3.586-2.75-4.683-7.165-2.958-10.902 2.44-5.224 5.782-9.983 9.873-14.063v.004zm-1.162-19.05c-2.446-2.448-4.221-4.567-4.784-6.082-1.076-2.91-.359-5.344 1.872-6.373 1.014-.422 2.106-.628 3.206-.606 1.043-.018 2.08.167 3.052.545 1.038.428 1.855 1.26 2.26 2.302.46 1.342.367 2.811-.259 4.086-.638 1.39-4.512 5.537-5.347 6.124v.004z" transform="translate(-155 -1965) translate(0 1558) translate(0 357) translate(155 50)"/>
                    </g>
                </g>
            </g>
        </g>
    </g>
</svg>
