<svg xmlns="http://www.w3.org/2000/svg" width="30" height="30" viewBox="0 0 30 30">
    <g fill="none" fill-rule="evenodd">
        <g fill="#173D32" fill-rule="nonzero">
            <g>
                <path d="M25.596 21.78c.387 0 .7.314.7.7 0 .387-.313.7-.7.7H5.404c-.387 0-.7-.313-.7-.7 0-.386.313-.7.7-.7h20.192zm0-7.403c.387 0 .7.313.7.7 0 .387-.313.7-.7.7H5.404c-.387 0-.7-.313-.7-.7 0-.387.313-.7.7-.7h20.192zm0-7.404c.387 0 .7.313.7.7 0 .387-.313.7-.7.7H5.404c-.387 0-.7-.313-.7-.7 0-.387.313-.7.7-.7h20.192z" transform="translate(-19 -12) translate(19 12)"/>
            </g>
        </g>
    </g>
</svg>
