<svg xmlns="http://www.w3.org/2000/svg" width="26" height="26" viewBox="0 0 26 26">
    <g fill="none" fill-rule="evenodd">
        <g fill="#173D32" fill-rule="nonzero">
            <g>
                <g>
                    <g>
                        <path d="M20.005 10.883v.015c-.001 1.235-.353 2.445-1.023 3.505l-4.364 6.486c-.14.209-.32.388-.53.529-.893.601-2.105.364-2.706-.53l-4.374-6.5c-.66-1.045-1.012-2.255-1.013-3.505.08-3.797 3.22-6.812 6.992-6.737 3.798-.075 6.938 2.94 7.018 6.737zm-6.797-5.438h-.22c-3.081-.06-5.629 2.385-5.694 5.45.002.991.284 1.96.803 2.782l4.364 6.486c.2.298.604.377.902.176.07-.046.13-.106.176-.176l4.354-6.47c.528-.835.81-1.802.813-2.79-.068-3.003-2.496-5.402-5.498-5.458zM13 7.624c1.61 0 2.926 1.253 2.926 2.816S14.61 13.257 13 13.257c-1.61 0-2.926-1.254-2.926-2.817 0-1.563 1.317-2.816 2.926-2.816zm0 1.3c-.905 0-1.626.686-1.626 1.516s.72 1.517 1.626 1.517c.905 0 1.626-.686 1.626-1.517 0-.83-.72-1.516-1.626-1.516z" transform="translate(-329 -14) translate(19 12) translate(308) translate(2 2)"/>
                    </g>
                </g>
            </g>
        </g>
    </g>
</svg>
