<svg xmlns="http://www.w3.org/2000/svg" width="326" height="507" viewBox="0 0 326 507">
    <g fill="none" fill-rule="evenodd" opacity=".025">
        <g fill="#183D32">
            <g>
                <path d="M284.943 238.593c-7.663-11.66-34.175-34.516-62.216-58.713-6.116-5.366-12.25-10.57-18.293-15.828 8.742-13.145 33.78-44.997 38.276-59.68C259.58 46.195 227.367 14.45 191.556 4.221 182.034 1.437 172.162.016 162.237 0c-23.31 0-44.517 7.815-59.716 21.998-24.138 22.57-30.146 62.594-14.281 95.269 6.043 12.519 16.188 26.397 28.04 41.259-17.284 12.876-69.662 56.943-95.85 110.882-24.247 49.861-26.89 97.022-8.04 144.165C34.332 468.549 95.595 507 161.283 507c12.618.006 25.195-1.428 37.484-4.274 69.357-16.096 109.72-55.28 123.515-119.646 10.738-50.237-1.816-98.72-37.34-144.487zm-68.71 214.11c-18.685 8.47-38.965 12.902-59.5 13.002-23.383 0-47.7-8.37-72.576-24.912-35.236-23.41-56.479-61.97-55.382-100.653 1.889-67.137 83.297-146.114 102.165-163.784l7.555 8.942.125.144v.107c-12.338 11.428-95.491 89.224-97.991 153.16-1.385 36.556 15.162 66.62 49.391 89.422 22.592 15.004 46.46 22.641 70.868 22.641 18.08-.159 35.921-4.133 52.342-11.66 34.642-15.381 84.43-62.005 51.568-139.194-21.584-50.862-88.55-115.442-89.107-115.96-.557-.52-69.087-57.534-73.548-102.549-1.36-13.304 2.702-26.594 11.278-36.895 11.81-14.66 29.71-23.15 48.6-23.054 10.743.104 21.347 2.43 31.135 6.833 25.991 11.642 37.197 39.238 32.61 58.124-5.935 24.573-32.556 55.78-37.898 62.952l.162.143c-2.914-2.611-5.756-5.168-8.526-7.708 5.145-6.653 29.427-32.567 34.75-54.654 4.75-19.673-5.863-39.757-25.81-48.824-8.423-4.047-17.627-6.231-26.98-6.403-15.001 0-28.311 6.725-39.355 19.923-7.195 8.46-9.533 17.885-7.807 30.672 5.612 41.008 64.285 88.867 64.969 89.421.683.554 77.235 75.006 99.215 127.39 10.468 24.912 36.764 109.38-62.253 153.374zm-49.121-232.495c19.173 24.502 35.272 48.842 40.758 71.537 5.611 23.143.143 42.332-15.47 54.064-17.766 13.37-42.338 13.245-59.967-.304-17.987-13.806-23.49-35.965-14.839-54.725 12.24-26.22 28.999-50.11 49.518-70.59v.018zm-5.828-95.626c-12.267-12.287-21.17-22.928-23.995-30.529-5.396-14.611-1.798-26.826 9.39-31.995 5.088-2.116 10.565-3.152 16.08-3.04 5.233-.09 10.433.84 15.306 2.736 5.209 2.147 9.305 6.322 11.332 11.553 2.309 6.74 1.843 14.114-1.295 20.514-3.202 6.975-22.627 27.792-26.818 30.743v.018z" transform="translate(-25 -252) translate(25 252)"/>
            </g>
        </g>
    </g>
</svg>
