<?xml version="1.0" encoding="UTF-8"?> <svg xmlns="http://www.w3.org/2000/svg" width="175.11" height="64" viewBox="0 0 175.11 64"> <defs> <style>.cls-1{fill:#ff8c00;}</style> </defs> <title>logo_qiwi</title> <g id="Layer_2" data-name="Layer 2"> <g id="Layer_1-2" data-name="Layer 1"> <path class="cls-1" d="M116.38,13.5V43.43a.81.81,0,0,1-.81.81h-6.12a.81.81,0,0,1-.81-.81V13.5a.81.81,0,0,1,.81-.81h6.12A.81.81,0,0,1,116.38,13.5ZM164,12.69h-6.84a.8.8,0,0,0-.77.57L151,30.94,145,13.24a.81.81,0,0,0-.77-.55h-4.77a.81.81,0,0,0-.77.55l-5.95,17.7-5.41-17.68a.82.82,0,0,0-.78-.57h-6.84a.81.81,0,0,0-.66.33.82.82,0,0,0-.11.73l10,29.94a.83.83,0,0,0,.78.55h5.42a.82.82,0,0,0,.78-.55l5.89-17.49,5.89,17.49a.81.81,0,0,0,.77.55H154a.81.81,0,0,0,.77-.55l10-29.94a.81.81,0,0,0-.78-1.06Zm10.29,0h-6.11a.82.82,0,0,0-.82.81V43.43a.82.82,0,0,0,.82.81h6.11a.81.81,0,0,0,.81-.81V13.5A.81.81,0,0,0,174.3,12.69ZM105.1,43.21a.62.62,0,0,1-.47,1H97.14a1,1,0,0,1-.79-.37l-1.27-1.53a16.55,16.55,0,1,1,4.94-5ZM90.25,36.54,87,32.6a.63.63,0,0,1,.49-1h6.87a10,10,0,0,0,.51-3.1,8.74,8.74,0,1,0-17.46,0,8.87,8.87,0,0,0,8.73,9.15A8.39,8.39,0,0,0,90.25,36.54ZM50.8,43.06c.19,1.25-.21,1.76-.6,1.76s-1-.5-1.62-1.5A3.06,3.06,0,0,1,48,40.64a.89.89,0,0,1,1.19-.34C50.28,40.7,50.69,42.32,50.8,43.06ZM45,45.78c1.26,1.07,1.65,2.34,1,3.24a2.07,2.07,0,0,1-1.7.76,3,3,0,0,1-1.94-.7c-1.15-1-1.49-2.63-.73-3.56A1.67,1.67,0,0,1,42.91,45,3.25,3.25,0,0,1,45,45.78ZM42.84,56.11c5.45,0,11.37,1.87,17.92,7.68.66.58,1.53-.14,1-.87-6.44-8.12-12.39-9.67-18.33-11-7.26-1.6-11-5.69-13.6-10.17-.52-.9-.75-.74-.8.41a24.84,24.84,0,0,0,.36,5.09h-.89A18.82,18.82,0,1,1,47.28,28.46a19.82,19.82,0,0,1-.12,2.19,27.73,27.73,0,0,0-6-.11c-.71.06-.61.39-.07.49,6.22,1.12,10.49,5,11.47,12a.17.17,0,0,0,.31.07A28.46,28.46,0,1,0,28.46,56.92C32.63,56.92,36.77,56.11,42.84,56.11Z"></path> </g> </g> </svg> 